<?xml version="1.0" encoding="utf-8"?>
<!-- Generator: Adobe Illustrator 21.0.2, SVG Export Plug-In . SVG Version: 6.00 Build 0)  -->
<svg version="1.1" id="Layer_1" xmlns="http://www.w3.org/2000/svg" xmlns:xlink="http://www.w3.org/1999/xlink" x="0px" y="0px"
   viewBox="0 0 156 156" style="enable-background:new 0 0 156 156;" xml:space="preserve">
<style type="text/css">
  .st0{fill:#25A69A;}
  .st1{fill:#FFFFFF;}
  .st2{fill:#616262;}
</style>
<g id="Guides">
</g>
<g id="Icons">
  <g>
    <g>
      <g>
        <g>
          <circle class="st0" cx="120.9" cy="100.6" r="30.4"/>
          <polygon class="st1" points="136.3,92.9 128.4,100.6 136.3,108.4 128.7,116 120.9,108.1 113,116 105.5,108.4 113.4,100.6 
            105.5,92.9 113,85.4 120.9,93 128.7,85.4           "/>
        </g>
      </g>
    </g>
    <rect x="89.1" y="61.1" class="st1" width="0.9" height="2.6"/>
    <g>
      <path class="st2" d="M146.9,43.3v-6.5c0-6.5-5-11.8-11.1-11.8H15.9C9.7,25,4.8,30.3,4.8,36.8v6.5H146.9z"/>
      <path class="st2" d="M85.8,100.4c0-19.1,15.6-34.7,34.7-34.7c10.4,0,19.8,4.6,26.3,12V56.3H4.8v49.6c0,6.5,5,11.8,11.1,11.8h74.5
        C87.5,112.5,85.8,106.7,85.8,100.4z M18,80.6c0-0.9,0.7-1.5,1.5-1.5h24.8c0.9,0,1.5,0.7,1.5,1.5v4.8c0,0.9-0.7,1.5-1.5,1.5H19.5
        c-0.9,0-1.5-0.7-1.5-1.5C18,85.4,18,80.6,18,80.6z M55.2,100.6c0,0.9-1,1.5-2.2,1.5H20c-1.2,0-2.2-0.7-2.2-1.5v-4.8
        c0-0.9,1-1.5,2.2-1.5h33c1.2,0,2.2,0.7,2.2,1.5V100.6z"/>
    </g>
  </g>
</g>
</svg>
