<svg id="Layer_1" data-name="Layer 1" xmlns="http://www.w3.org/2000/svg" xmlns:xlink="http://www.w3.org/1999/xlink" viewBox="0 0 488.37 468.58"><defs><style>.cls-1{fill:none;}.cls-2{clip-path:url(#clip-path);}.cls-3{fill:#6d4417;}.cls-4{fill:#825930;}.cls-5{fill:#ce8c4a;}.cls-6{fill:#e29e60;}.cls-7{fill:#518e38;}.cls-8{fill:#366620;}.cls-9{fill:#65af43;}.cls-10{fill:#fff;}.cls-11{opacity:0.5;}</style><clipPath id="clip-path" transform="translate(-11.82 -21.71)"><rect class="cls-1" width="512" height="512"/></clipPath></defs><title>codemy-grow</title><g class="cls-2"><path class="cls-3" d="M500.18,467.08A23.22,23.22,0,0,1,477,490.29H35.77a23.23,23.23,0,0,1-23.23-23.21V250.34a23.23,23.23,0,0,1,23.23-23.21H477a23.21,23.21,0,0,1,23.21,23.21V467.08Z" transform="translate(-11.82 -21.71)"/></g><g class="cls-2"><path class="cls-4" d="M11.82,248.05H499a23.14,23.14,0,0,0-23-20.93H34.81A23.16,23.16,0,0,0,11.82,248.05Z" transform="translate(-11.82 -21.71)"/></g><g class="cls-2"><circle class="cls-5" cx="243.59" cy="360.64" r="96.51"/></g><g class="cls-2"><rect class="cls-5" x="228.35" y="205.41" width="30.48" height="74.93"/></g><g class="cls-2"><rect class="cls-6" x="228.35" y="205.41" width="30.48" height="20.93"/></g><g class="cls-2"><path class="cls-7" d="M264,234.09c0,4.73-3.84,3.48-8.57,3.48s-8.57,1.24-8.57-3.48v-128a8.57,8.57,0,1,1,17.14,0v128Z" transform="translate(-11.82 -21.71)"/></g><g class="cls-2"><path class="cls-8" d="M255.41,97.57a8.57,8.57,0,0,0-8.57,8.57V175c0,4.73,3.84,3.49,8.57,3.49S264,179.78,264,175v-68.9A8.58,8.58,0,0,0,255.41,97.57Z" transform="translate(-11.82 -21.71)"/></g><g class="cls-2"><path class="cls-7" d="M255.33,104.24s4.29-60-54.76-65.73-66.5-16.81-66.5-16.81-9.69,142.06,120.64,101.58Z" transform="translate(-11.82 -21.71)"/></g><g class="cls-2"><path class="cls-9" d="M255.28,97.54c-0.89-15.76-7.8-54.48-54.71-59-59-5.71-66.5-16.81-66.5-16.81s-0.08,1.16-.13,3.17C141.66,46.44,177.45,130.56,255.28,97.54Z" transform="translate(-11.82 -21.71)"/></g><g class="cls-2"><path class="cls-7" d="M255.49,104.24s-4.28-60,54.76-65.73,66.52-16.81,66.52-16.81,9.67,142.06-120.64,101.58Z" transform="translate(-11.82 -21.71)"/></g><g class="cls-2"><path class="cls-9" d="M255.55,97.54c0.87-15.76,7.81-54.48,54.69-59,59.05-5.71,66.52-16.81,66.52-16.81s0.07,1.16.13,3.17C369.18,46.44,333.39,130.56,255.55,97.54Z" transform="translate(-11.82 -21.71)"/></g><g class="cls-2"><path class="cls-7" d="M257.56,129.55a2.14,2.14,0,1,1-4.29,0V104.79a2.14,2.14,0,1,1,4.29,0v24.77Z" transform="translate(-11.82 -21.71)"/></g><g class="cls-2"><circle class="cls-4" cx="91.09" cy="279.37" r="15.24"/></g><g class="cls-2"><circle class="cls-4" cx="51.09" cy="257.14" r="5.72"/></g><g class="cls-2"><circle class="cls-4" cx="158.4" cy="260.32" r="8.89"/></g><g class="cls-2"><circle class="cls-4" cx="56.18" cy="349.85" r="14.6"/></g><g class="cls-2"><circle class="cls-4" cx="344.43" cy="254.61" r="6.99"/></g><g class="cls-2"><path class="cls-4" d="M428,336.64a6.35,6.35,0,1,1-6.34-6.36A6.35,6.35,0,0,1,428,336.64Z" transform="translate(-11.82 -21.71)"/></g><g class="cls-2"><circle class="cls-4" cx="421.27" cy="269.22" r="15.23"/></g><g class="cls-2"><circle class="cls-4" cx="374.29" cy="292.07" r="6.35"/></g><g class="cls-2"><circle class="cls-4" cx="458.1" cy="300.95" r="7.62"/></g><g class="cls-2"><circle class="cls-4" cx="392.7" cy="360.01" r="14.6"/></g><g class="cls-2"><circle class="cls-4" cx="300" cy="250.8" r="5.72"/></g><path class="cls-10" d="M273.4,417a3.69,3.69,0,0,0,.84,3.21l7.42,7.42a1,1,0,0,0,1.86-.51L310.43,326.7a1,1,0,0,0-1.34-1.35L208.67,352.26a1,1,0,0,0-.51,1.86l7.42,7.42a3.69,3.69,0,0,0,3.21.84l72.77-19.5a1,1,0,0,1,1.34,1.35Z" transform="translate(-11.82 -21.71)"/><g class="cls-11"><path class="cls-10" d="M284.53,352.6a1,1,0,0,0-1.35-1.35l-59.54,16a1,1,0,0,0-.51,1.86l43.57,43.57a1,1,0,0,0,1.86-.51Z" transform="translate(-11.82 -21.71)"/></g><path class="cls-10" d="M202,435.13a1,1,0,0,1-1.35-1.35l15.93-59.51a1,1,0,0,1,1.82-.48L262,417.37a1,1,0,0,1-.48,1.82Z" transform="translate(-11.82 -21.71)"/></svg>