<svg id="codemy_net" xmlns="http://www.w3.org/2000/svg" viewBox="0 0 230.6 230.61"><defs><style>.cls-1{fill:#3a4f63;}.cls-2{opacity:0.5;}</style></defs><title>logo</title><path class="cls-1" d="M438,377.34a7.74,7.74,0,0,0,1.75,6.73l15.57,15.57c1.56,1.56,3.33,1.05,3.9-1.07L515.7,187.91c0.57-2.13-.69-3.41-2.82-2.84L302.21,241.54c-2.13.57-2.62,2.34-1.07,3.9L316.71,261a7.74,7.74,0,0,0,6.73,1.75l152.67-40.92c2.13-.57,3.39.71,2.82,2.84Z" transform="translate(-285.24 -184.93)"/><g class="cls-2"><path class="cls-1" d="M461.35,242.26c0.57-2.13-.7-3.4-2.83-2.83L333.6,272.93c-2.13.57-2.63,2.35-1.07,3.9l91.42,91.42c1.56,1.56,3.33,1.05,3.9-1.07Z" transform="translate(-285.24 -184.93)"/></g><path class="cls-1" d="M288.21,415.4c-2.13.57-3.4-.7-2.83-2.83L318.8,287.73c0.57-2.13,2.27-2.55,3.83-1l91.42,91.42c1.56,1.56,1.13,3.26-1,3.83Z" transform="translate(-285.24 -184.93)"/></svg>