<?xml version="1.0" encoding="utf-8"?>
<!-- Generator: Adobe Illustrator 21.0.2, SVG Export Plug-In . SVG Version: 6.00 Build 0)  -->
<svg version="1.1" id="codemy" xmlns="http://www.w3.org/2000/svg" xmlns:xlink="http://www.w3.org/1999/xlink" x="0px" y="0px"
	 viewBox="0 0 230.6 230.6" style="enable-background:new 0 0 230.6 230.6;" xml:space="preserve">
<style type="text/css">
	.st0{fill:#FFFFFF;}
	.st1{opacity:0.5;}
</style>
<title>logo</title>
<path class="st0" d="M152.8,192.4c-0.5,2.4,0.1,4.9,1.8,6.7l15.6,15.6c1.6,1.6,3.3,1,3.9-1.1L230.5,3c0.6-2.1-0.7-3.4-2.8-2.8
	L17,56.6c-2.1,0.6-2.6,2.3-1.1,3.9l15.6,15.6c1.8,1.6,4.3,2.3,6.7,1.8l152.7-40.9c2.1-0.6,3.4,0.7,2.8,2.8L152.8,192.4z"/>
<g class="st1">
	<path class="st0" d="M176.1,57.3c0.6-2.1-0.7-3.4-2.8-2.8L48.4,88c-2.1,0.6-2.6,2.4-1.1,3.9l91.4,91.4c1.6,1.6,3.3,1,3.9-1.1
		L176.1,57.3z"/>
</g>
<path class="st0" d="M3,230.5c-2.1,0.6-3.4-0.7-2.8-2.8l33.4-124.8c0.6-2.1,2.3-2.5,3.8-1l91.4,91.4c1.6,1.6,1.1,3.3-1,3.8L3,230.5z
	"/>
</svg>
